<mxfile host="app.diagrams.net" modified="2022-12-02T10:08:22.028Z" agent="5.0 (Windows NT 10.0; Win64; x64) AppleWebKit/537.36 (KHTML, like Gecko) Chrome/108.0.0.0 Safari/537.36" etag="tzAcK-rMhGTlj464AkZ3" version="20.6.0" type="github">
  <diagram id="R2lEEEUBdFMjLlhIrx00" name="Page-1">
    <mxGraphModel dx="1038" dy="481" grid="1" gridSize="10" guides="1" tooltips="1" connect="1" arrows="1" fold="1" page="1" pageScale="1" pageWidth="850" pageHeight="1100" math="0" shadow="0" extFonts="Permanent Marker^https://fonts.googleapis.com/css?family=Permanent+Marker">
      <root>
        <mxCell id="0" />
        <mxCell id="1" parent="0" />
        <mxCell id="FKpZfmPv2QVPB4RQJ3Lb-1" value="Соискатель" style="rounded=1;arcSize=10;whiteSpace=wrap;html=1;align=center;" vertex="1" parent="1">
          <mxGeometry x="165" y="120" width="100" height="40" as="geometry" />
        </mxCell>
        <mxCell id="FKpZfmPv2QVPB4RQJ3Lb-2" value="Работодатель" style="rounded=1;arcSize=10;whiteSpace=wrap;html=1;align=center;" vertex="1" parent="1">
          <mxGeometry x="440" y="130" width="100" height="40" as="geometry" />
        </mxCell>
        <mxCell id="FKpZfmPv2QVPB4RQJ3Lb-3" value="Вакансия" style="rounded=1;arcSize=10;whiteSpace=wrap;html=1;align=center;" vertex="1" parent="1">
          <mxGeometry x="140" y="260" width="100" height="40" as="geometry" />
        </mxCell>
        <mxCell id="FKpZfmPv2QVPB4RQJ3Lb-12" style="edgeStyle=orthogonalEdgeStyle;rounded=0;orthogonalLoop=1;jettySize=auto;html=1;entryX=0.5;entryY=0;entryDx=0;entryDy=0;" edge="1" parent="1" source="FKpZfmPv2QVPB4RQJ3Lb-4" target="FKpZfmPv2QVPB4RQJ3Lb-1">
          <mxGeometry relative="1" as="geometry">
            <Array as="points">
              <mxPoint x="90" y="90" />
              <mxPoint x="215" y="90" />
            </Array>
          </mxGeometry>
        </mxCell>
        <mxCell id="FKpZfmPv2QVPB4RQJ3Lb-4" value="Имя" style="ellipse;whiteSpace=wrap;html=1;align=center;" vertex="1" parent="1">
          <mxGeometry x="40" y="20" width="100" height="40" as="geometry" />
        </mxCell>
        <mxCell id="FKpZfmPv2QVPB4RQJ3Lb-16" value="" style="edgeStyle=orthogonalEdgeStyle;rounded=0;orthogonalLoop=1;jettySize=auto;html=1;" edge="1" parent="1" source="FKpZfmPv2QVPB4RQJ3Lb-7" target="FKpZfmPv2QVPB4RQJ3Lb-1">
          <mxGeometry relative="1" as="geometry" />
        </mxCell>
        <mxCell id="FKpZfmPv2QVPB4RQJ3Lb-7" value="Номер телефона" style="ellipse;whiteSpace=wrap;html=1;align=center;" vertex="1" parent="1">
          <mxGeometry x="160" y="20" width="110" height="40" as="geometry" />
        </mxCell>
        <mxCell id="FKpZfmPv2QVPB4RQJ3Lb-15" style="edgeStyle=orthogonalEdgeStyle;rounded=0;orthogonalLoop=1;jettySize=auto;html=1;exitX=0.5;exitY=1;exitDx=0;exitDy=0;entryX=0.5;entryY=0;entryDx=0;entryDy=0;" edge="1" parent="1" source="FKpZfmPv2QVPB4RQJ3Lb-8" target="FKpZfmPv2QVPB4RQJ3Lb-1">
          <mxGeometry relative="1" as="geometry">
            <mxPoint x="285" y="120" as="targetPoint" />
            <Array as="points">
              <mxPoint x="340" y="90" />
              <mxPoint x="215" y="90" />
            </Array>
          </mxGeometry>
        </mxCell>
        <mxCell id="FKpZfmPv2QVPB4RQJ3Lb-8" value="Страна и город" style="ellipse;whiteSpace=wrap;html=1;align=center;" vertex="1" parent="1">
          <mxGeometry x="290" y="20" width="100" height="40" as="geometry" />
        </mxCell>
      </root>
    </mxGraphModel>
  </diagram>
</mxfile>
